<svg xmlns="http://www.w3.org/2000/svg" xmlns:xlink="http://www.w3.org/1999/xlink" width="24" height="24" viewBox="0 0 24 24"><defs><style>.e079bdbf-e95f-4ef2-83a1-baf632e72a1f{opacity:0.5;}.dbcfcb0e-da4f-4118-bbaf-d6a96e1fde0c{fill:#fc97dd;stroke:#9b5f7e;}.\30 e0d4000-7bef-4f7c-9375-71d9a1ddfc55,.\36 6dac287-0556-4856-9368-2242c3fce764,.\37 881c95d-1957-4e54-9c35-bc3a23f462d0,.\39 c0cd666-b24b-4810-b5c3-1fcda1a77911,.cb87d074-3d2d-4c1e-afa9-a1ff4d10c8aa,.dbcfcb0e-da4f-4118-bbaf-d6a96e1fde0c,.e92d4fc1-2c70-4bef-abf5-2a3821715dff,.eae482cc-eac6-42b9-8ec5-6260bcf963e4,.ef3f58e8-a4ea-4325-97cb-b94b84b263d9{stroke-miterlimit:10;}.\39 c0cd666-b24b-4810-b5c3-1fcda1a77911,.cb87d074-3d2d-4c1e-afa9-a1ff4d10c8aa,.eae482cc-eac6-42b9-8ec5-6260bcf963e4{stroke:#a97c50;stroke-width:0.75px;}.cb87d074-3d2d-4c1e-afa9-a1ff4d10c8aa{fill:url(#6f227cc5-b76c-41f8-8318-24c3de7a48f7);}.\30 e0d4000-7bef-4f7c-9375-71d9a1ddfc55,.\37 881c95d-1957-4e54-9c35-bc3a23f462d0,.e92d4fc1-2c70-4bef-abf5-2a3821715dff{stroke:#593314;}.\30 e0d4000-7bef-4f7c-9375-71d9a1ddfc55{fill:url(#a8ba6e9d-dee7-48c7-adc3-c6004e9b0989);}.ef3f58e8-a4ea-4325-97cb-b94b84b263d9{fill:#ffe000;stroke:#d19f13;}.eae482cc-eac6-42b9-8ec5-6260bcf963e4{fill:url(#9a58a755-dd1d-43ce-b1c7-0f32784aed33);}.e92d4fc1-2c70-4bef-abf5-2a3821715dff{fill:url(#d37c9eb2-4c8b-49e8-9f05-c85a5cc587e1);}.\36 6dac287-0556-4856-9368-2242c3fce764{fill:#00c3ff;stroke:#4b75c9;}.\39 c0cd666-b24b-4810-b5c3-1fcda1a77911{fill:url(#d667c40f-d715-42ff-8081-b146c6415892);}.\37 881c95d-1957-4e54-9c35-bc3a23f462d0{fill:url(#c0c100fd-7730-4358-8b40-ac207989ed3f);}</style><radialGradient id="6f227cc5-b76c-41f8-8318-24c3de7a48f7" cx="6.41" cy="5.84" r="3.75" gradientUnits="userSpaceOnUse"><stop offset="0.65" stop-color="#ffe8bd"/><stop offset="1" stop-color="#e0bd80"/></radialGradient><linearGradient id="a8ba6e9d-dee7-48c7-adc3-c6004e9b0989" x1="6.41" y1="1" x2="6.41" y2="5.42" gradientUnits="userSpaceOnUse"><stop offset="0" stop-color="#aa8000"/><stop offset="0.45" stop-color="#543600"/></linearGradient><radialGradient id="9a58a755-dd1d-43ce-b1c7-0f32784aed33" cx="17.26" cy="5.84" r="3.75" xlink:href="#6f227cc5-b76c-41f8-8318-24c3de7a48f7"/><linearGradient id="d37c9eb2-4c8b-49e8-9f05-c85a5cc587e1" x1="17.26" x2="17.26" y2="5.42" xlink:href="#a8ba6e9d-dee7-48c7-adc3-c6004e9b0989"/><radialGradient id="d667c40f-d715-42ff-8081-b146c6415892" cx="11.83" cy="11.83" r="4.22" xlink:href="#6f227cc5-b76c-41f8-8318-24c3de7a48f7"/><linearGradient id="c0c100fd-7730-4358-8b40-ac207989ed3f" x1="11.83" y1="6.39" x2="11.83" y2="11.37" xlink:href="#a8ba6e9d-dee7-48c7-adc3-c6004e9b0989"/></defs><title>icon_group_24</title><g id="91c0a22d-efde-4e21-94a8-1d1a768c7877" data-name="Layer 1"><ellipse class="e079bdbf-e95f-4ef2-83a1-baf632e72a1f" cx="6.56" cy="15.15" rx="5.78" ry="1.13"/><path class="dbcfcb0e-da4f-4118-bbaf-d6a96e1fde0c" d="M11.33,12.21c0,2.37-2.2,3.1-4.92,3.1s-4.92-.72-4.92-3.1,2.2-4.3,4.92-4.3S11.33,9.83,11.33,12.21Z"/><circle class="cb87d074-3d2d-4c1e-afa9-a1ff4d10c8aa" cx="6.41" cy="5.84" r="3.75"/><path class="0e0d4000-7bef-4f7c-9375-71d9a1ddfc55" d="M10.16,4.75c0,2.07-.34-1.32-2.41-1.32s-5.1,3.39-5.1,1.32a3.75,3.75,0,0,1,7.5,0Z"/><ellipse class="e079bdbf-e95f-4ef2-83a1-baf632e72a1f" cx="17.41" cy="15.15" rx="5.78" ry="1.13"/><path class="ef3f58e8-a4ea-4325-97cb-b94b84b263d9" d="M22.18,12.21c0,2.37-2.2,3.1-4.92,3.1s-4.92-.72-4.92-3.1,2.2-4.3,4.92-4.3S22.18,9.83,22.18,12.21Z"/><circle class="eae482cc-eac6-42b9-8ec5-6260bcf963e4" cx="17.26" cy="5.84" r="3.75"/><path class="e92d4fc1-2c70-4bef-abf5-2a3821715dff" d="M21,4.75c0,2.07-.34-1.32-2.41-1.32s-5.1,3.39-5.1,1.32a3.75,3.75,0,1,1,7.5,0Z"/><ellipse class="e079bdbf-e95f-4ef2-83a1-baf632e72a1f" cx="12.01" cy="22.31" rx="6.5" ry="1.27"/><path class="66dac287-0556-4856-9368-2242c3fce764" d="M17.37,19c0,2.67-2.48,3.49-5.54,3.49S6.3,21.67,6.3,19s2.48-4.84,5.54-4.84S17.37,16.33,17.37,19Z"/><circle class="9c0cd666-b24b-4810-b5c3-1fcda1a77911" cx="11.83" cy="11.83" r="4.22"/><path class="7881c95d-1957-4e54-9c35-bc3a23f462d0" d="M16.05,10.61c0,2.33-.38-1.49-2.71-1.49s-5.73,3.82-5.73,1.49a4.22,4.22,0,0,1,8.44,0Z"/></g></svg>