<svg id="a50ae30e-82a5-4d5d-94c5-d333bf6beee7" data-name="Layer 1" xmlns="http://www.w3.org/2000/svg" width="96" height="96" viewBox="0 0 96 96"><title>default_platform_portrait</title><rect width="96" height="96" style="fill:#00cfff"/><ellipse cx="23.46" cy="39" rx="3.75" ry="5.82" style="fill:#fff;stroke:#231f20;stroke-miterlimit:10"/><ellipse cx="72.54" cy="39" rx="3.75" ry="5.82" style="fill:#fff;stroke:#231f20;stroke-miterlimit:10"/><path d="M73.58,96c-.28-9.86-2.47-22.74-18.65-25.55V60.67H41.06v9.76C24.26,73.16,22.58,86.1,22.42,96" style="fill:#fff;stroke:#231f20;stroke-linecap:round;stroke-linejoin:round"/><path d="M71.83,39.5C71.83,55.24,59.58,68,48,68,38,68,24.17,55.24,24.17,39.5S29.25,8,48,8C67.75,8,71.83,23.76,71.83,39.5Z" style="fill:#fff;stroke:#231f20;stroke-miterlimit:10"/><circle cx="38.34" cy="35.81" r="1.6" style="fill:#231f20"/><circle cx="57.66" cy="35.81" r="1.6" style="fill:#231f20"/><path d="M48.05,39.5S45,44.44,45.68,45.25s4.75,1.38,4.75,1.38" style="fill:none;stroke:#231f20;stroke-linecap:round;stroke-linejoin:round"/><path d="M54.42,53.92c-1,1.54-3.44,4.24-6.42,4.24s-5.38-2.7-6.42-4.24" style="fill:none;stroke:#231f20;stroke-linecap:round;stroke-linejoin:round"/><path d="M33.18,32.06a6.18,6.18,0,0,1,4.93-1.31,5.56,5.56,0,0,1,3.47,1.87" style="fill:none;stroke:#231f20;stroke-linecap:round;stroke-miterlimit:10"/><path d="M62.82,32.06a6.18,6.18,0,0,0-4.93-1.31,5.56,5.56,0,0,0-3.47,1.87" style="fill:none;stroke:#231f20;stroke-linecap:round;stroke-miterlimit:10"/><path d="M53.9,73.69c0,1.79-2.64,3.25-5.9,3.25s-5.9-1.46-5.9-3.25" style="fill:none;stroke:#231f20;stroke-linecap:round;stroke-linejoin:round"/></svg>