<svg id="13f7bbaa-5f3b-4b75-bb58-dc8ef8524eff" data-name="Layer 1" xmlns="http://www.w3.org/2000/svg" width="47.98" height="24" viewBox="0 0 47.98 24"><defs><style>.a7b3bebf-55f0-4326-8b44-bd66ca587dee{fill:#de5c8e;}</style></defs><title>cu-logo</title><path class="a7b3bebf-55f0-4326-8b44-bd66ca587dee" d="M36,18.75A6.75,6.75,0,0,0,42.73,12V0h-3V12a3.75,3.75,0,1,1-7.5,0h0V0h-3V12A6.75,6.75,0,0,0,36,18.75Z"/><path class="a7b3bebf-55f0-4326-8b44-bd66ca587dee" d="M24,12a12,12,0,0,0,24,0V0H45V12a9,9,0,0,1-18,.12V0H24Z"/><line class="a7b3bebf-55f0-4326-8b44-bd66ca587dee" x1="24" y1="3" x2="24" y2="5.24"/><path class="a7b3bebf-55f0-4326-8b44-bd66ca587dee" d="M5.25,12A6.75,6.75,0,0,0,12,18.74H24v-3H12a3.75,3.75,0,1,1,0-7.5H24v-3H12A6.75,6.75,0,0,0,5.25,12Z"/><path class="a7b3bebf-55f0-4326-8b44-bd66ca587dee" d="M12,0a12,12,0,0,0,0,24H24V21H12a9,9,0,0,1-.12-18H24V0H12Z"/><line class="a7b3bebf-55f0-4326-8b44-bd66ca587dee" x1="21" y1="0.01" x2="18.76" y2="0.01"/></svg>