<?xml version="1.0" encoding="utf-8"?>
<!-- Generator: Adobe Illustrator 22.0.1, SVG Export Plug-In . SVG Version: 6.00 Build 0)  -->
<svg version="1.1" id="a89692e9-ccfa-41a4-a662-22fec5221ccd"
	 xmlns="http://www.w3.org/2000/svg" xmlns:xlink="http://www.w3.org/1999/xlink" x="0px" y="0px" viewBox="0 0 411.9 99.2"
	 style="enable-background:new 0 0 411.9 99.2;" xml:space="preserve">
<style type="text/css">
	.st0{fill:#FF9E00;}
	.st1{fill:#008AE1;}
	.st2{fill:#808080;}
	.st3{enable-background:new    ;}
</style>
<title>logo_mycourseville_platform</title>
<path class="st0" d="M411.4,61.3c0.7,1.8,0.7,3.8-0.1,5.6c-1.4,3.1-5,4.9-8.2,6.1c-4,1.4-8.3,2-12.5,1.7c-8.6-0.6-15-4.4-18.1-10.5
	c-3.5-7-2-17.3,1.1-23.3s8.1-11.2,17-11.7c7.8-0.4,14.2,1.7,17.4,5.9c2.1,3.1,2.5,7,0.9,10.4c-1.6,3-4.4,4.7-7.2,6.2
	c-6.1,3.2-12.2,5.6-18.3,8.5c2.5,3.1,8.5,4.3,14,3.1c1.6-0.4,3.2-1,4.6-1.9c1.8-1.1,5.3-2.7,8-1.2C410.6,60.3,411,60.8,411.4,61.3z
	 M400.6,42.3c-2.6-2-5.8-3-9.1-2.7c-6.7,0.6-11,4.8-11.5,11.5C386.7,48.2,393.8,45.2,400.6,42.3L400.6,42.3z"/>
<path class="st0" d="M363.1,17.2c0.5,1.8,0.2,4.8,0.2,7.1c0,14.5,0,28.6,0,43.1c0,2.2,0.3,5-0.1,7.1c-0.4,2.7-2.7,4.6-5.4,4.6
	c-2.7,0.1-5-1.8-5.5-4.4c-0.2-1.2-0.2-2.4-0.1-3.6V24.2c0-2.1-0.4-5.1,0.2-7c0.9-3,4-4.7,7-3.8C361.1,14,362.6,15.4,363.1,17.2
	L363.1,17.2z"/>
<path class="st0" d="M343.5,17.2c0.5,1.8,0.2,4.8,0.2,7.1v43.1c0,2.2,0.3,5-0.1,7.1c-0.4,2.7-2.7,4.6-5.4,4.6
	c-2.7,0.1-5-1.8-5.5-4.4c-0.2-1.2-0.2-2.4-0.1-3.5v-47c0-2.1-0.4-5.1,0.2-7c0.9-3,4-4.7,7-3.8C341.5,14,342.9,15.4,343.5,17.2
	L343.5,17.2z"/>
<path class="st0" d="M321.4,70.4c0.1,1.4,0.1,2.8-0.1,4.2c-0.6,2.3-2.6,4.1-5,4.3c-2.6,0.2-5.1-1.4-5.9-3.9
	c-0.3-1.4-0.3-2.8-0.2-4.2V44.3c-0.1-1.4,0-2.8,0.2-4.2c0.6-2.2,2.5-3.8,4.8-4c2.7-0.3,5.3,1.4,6,4.1c0.2,1.4,0.3,2.8,0.2,4.2V70.4z
	"/>
<path class="st0" d="M320.9,24.5c0.2,3-2,5.6-5,5.9c-1,0.1-2-0.1-2.9-0.6c-2.7-1.4-3.7-4.6-2.3-7.3c0.8-1.6,2.5-2.7,4.3-2.9
	c2.9-0.3,5.6,1.8,5.9,4.7C320.9,24.3,320.9,24.4,320.9,24.5z"/>
<path class="st0" d="M301.8,22.7c1.2,2.1,0.1,5.8-0.5,7.9c-3.6,12.2-7.1,24.4-10.5,36.6c-0.6,2.3-1.3,4.9-2,7.4s-1.7,4.8-3.5,5.9
	c-1.7,1-3.8,1.1-5.6,0.2c-1.8-1-3.4-3.5-4.5-5.7c-1.2-2.3-2.2-4.7-3.2-6.9c-5-11.8-10.4-23.3-15.5-35.3c-0.8-2-2.7-5.2-1.6-8
	c0.9-2.2,4.6-4,7.8-2.8s3.5,5.3,5.1,8.2c0.4,0.7,0.9,1.3,1.2,2c1.5,3,2.6,6.1,3.9,9.1c2.6,5.9,5.3,12.2,8,18
	c3.4-9.2,5.9-19.6,8.7-29.6c0.4-1.6,1-3.2,1.6-4.8c0.6-1.4,1.3-3.3,2.4-3.9C295.9,19.6,300.8,20.9,301.8,22.7z"/>
<path class="st1" d="M254,61.3c0.9,2,0.8,4.2-0.4,6.1c-0.9,1.5-2.3,2.8-3.9,3.6c-3.6,2-7.5,3.2-11.6,3.5
	c-10.2,0.8-17.7-2.8-21.7-8.4c-2.4-3.4-3.6-7.6-3.4-11.8c0.2-9.6,3.6-16.7,9.1-21.2c3.2-2.6,7.1-4,11.1-4.2
	c4.6-0.4,9.2,0.5,13.4,2.5c3.4,1.8,6.1,4.9,5.9,9.9c-0.2,2.9-1.6,5.6-3.9,7.4c-2.2,1.7-4.6,3-7.1,4.1c-5.3,2.5-10.2,4.7-15.5,7.1
	c2.4,3,8.4,4.3,14,3.1c1.6-0.4,3.2-1,4.6-1.9c1.8-1.1,5.1-2.8,7.8-1.3C253.2,60.2,253.7,60.7,254,61.3z M243.3,42.2
	c-2.6-2-5.9-3-9.1-2.7c-6.6,0.6-11,4.8-11.5,11.5C229.4,48.2,236.4,45.2,243.3,42.2z"/>
<path class="st1" d="M211.1,44.8c0.6,2.8-1,5.6-3.7,6.6c-2.8,0.9-5.3-1.2-6.8-2.4s-3.7-2.9-5.4-4.2c-1.5-1.1-4.1-3.2-6.9-2.5
	c-1.9,0.5-3.1,2.5-2.6,4.4v0.1c0.7,2.3,5,2.5,7.4,3.1s6,1.3,7.9,2.6c3.7,2.5,6.3,8.4,4.9,14.9c-1.2,5.6-4.4,9.3-9.5,11
	c-6.2,2-12-0.6-16.2-2.9c-2.2-1.2-4.3-2.5-6.2-4c-1.8-1.4-4-3.1-4.6-5.5c-1-3.5,2.1-7.5,5.9-6.8c2.8,0.6,5.3,3,7.6,4.6
	c1.1,0.8,2.3,1.7,3.6,2.5c1.6,1,4,2.1,6.2,1.2c1.8-0.8,2.6-2.8,1.9-4.7c-0.7-1.6-2.9-1.9-4.8-2.2c-5.6-0.8-10.7-2.2-13.4-6.2
	c-1.1-1.7-1.9-3.6-2.2-5.7c-0.8-4.4,0.2-8.8,2.8-12.5c2.5-3.3,6.3-5.2,10.4-5.4c5.7-0.4,10.1,2.1,13.7,4.4c1.8,1.1,3.6,2.4,5.3,3.7
	C208.2,40.3,210.4,42.3,211.1,44.8z"/>
<path class="st1" d="M172.5,37.2c0.6,2.5-0.2,5.1-2.2,6.8c-1.2,0.9-2.8,1.4-4.3,1.3c-4-0.3-6.6-4.5-5.2-9.1c-1-1.6-2.8-2.5-4.7-2.2
	c-2.1,0.3-4,1.3-5.4,2.8c-1.6,1.4-2.6,3.4-2.7,5.5v0.2c0,0.1-0.1,0-0.1-0.1s0-0.2,0-0.3v-0.5c0,0.2,0,0.3,0,0.5
	c0.2,6.7,0.5,13,0.7,19.7c0.2,2.3,0.3,4.5,0.2,6.8c-0.3,3.1-3,5.4-6.1,5.1c-1.5-0.1-2.8-0.8-3.8-2c-1.1-1.3-1.3-2.9-1.4-4.9
	c-0.4-10.3-0.7-20.4-1.2-30.6c-0.2-2-0.2-4.1-0.2-6.1c0.3-2.8,2.6-5,5.4-5c3.3-0.1,5.1,2.2,5.7,4.7c0.2,0.1,0.4-0.2,0.6-0.5
	c0.7-0.7,1.4-1.3,2.2-1.9c2-1.5,4-3.3,7.6-3.2c1.8,0.1,3.5,0.6,5.1,1.4c1.7,0.7,3.3,1.7,4.6,2.9c1.2,1.2,2.1,2.5,2.9,4
	c0.4,0.7,0.8,1.5,1.1,2.3C171.9,35.5,172.2,36.3,172.5,37.2z"/>
<path d="M147.9,41.6v0.5C147.9,42,147.9,41.8,147.9,41.6z"/>
<path class="st1" d="M131.1,29.2c0.6,2.1,0.8,4.4,0.5,6.6c-0.3,6.8,0.5,14.2-0.3,20.7c-0.3,3.6-2,7-4.7,9.4s-6.1,4-9.7,4.5
	c-4,0.4-7.9-0.5-11.4-2.5c-3.1-1.5-5.5-4-6.9-7.2c-1.4-3.5-0.6-8.8-0.6-13.2c0-2.2,0.2-4.6,0.2-6.9c0.1-2.2,0-4.5-0.4-6.7
	c-0.3-1.2-1.2-2-1.5-3.2c-0.5-1.9-0.1-3.9,1.1-5.4c1-1.5,2.6-2.4,4.4-2.6c3.1-0.4,5.9,1.8,6.4,4.8c0.1,1.2,0.1,2.3,0.1,3.5v20.9
	c-0.1,1.1-0.1,2.3,0.1,3.4c0.6,3.3,3.6,5.7,7,5.3c3.2-0.2,5.4-2.6,5.9-6.4c0.2-2,0.2-4,0.1-6c-0.2-4.9-0.1-10.1-0.1-15.2
	c-0.1-1.1-0.1-2.2,0.1-3.3c0.3-1,0.8-1.9,1.6-2.7C125.6,24.8,130.1,26.4,131.1,29.2z"/>
<path class="st1" d="M93.4,50.8c0.6,12-8.6,22.2-20.7,22.9C66.8,74.1,61,72,56.7,68c-4.2-3.8-6.7-9.2-7-14.8
	c-0.4-5.9,1.6-11.7,5.7-16c2.7-3,6.2-5.1,10.1-6.2c1.6-0.4,3.2-0.7,4.8-0.8c5.9-0.4,11.7,1.7,16,5.8C90.6,39.7,93.1,45.1,93.4,50.8z
	 M80.3,60c2.2-2.3,3.3-5.5,3-8.7c-0.5-6.4-6-11.3-12.5-10.8c-3,0.2-5.9,1.6-8,3.8c-2.1,2.4-3.2,5.5-2.9,8.7c0.2,3,1.5,5.8,3.8,7.8
	C68.6,65.1,76,64.7,80.3,60z"/>
<path class="st2" d="M85.7,0.9c-0.1,1-0.4,2-0.8,2.9c-1.9,5.4-4,11-5.9,16.4c-0.4,1.3-0.8,3.8-2.4,4c-0.5,0-1.4-0.3-1.5-0.9
	c-0.2-0.9,0.8-2.5,1-3.1c0.4-1.1,0.7-1.9,1.2-2.9c-0.8-1.5-1.5-3-1.9-4.6c-1.2-3.2-2.3-6.2-3.5-9.6c-0.4-1.2-1.1-2.8,0.6-3
	s2.1,2.1,2.6,3.4c1.2,3.4,2.6,7.2,3.6,10.4c0.3-0.5,0.5-1.1,0.7-1.7c0.9-3,1.9-5.8,2.9-8.9c0.3-1,0.8-2.8,1.7-3.1
	C84.6-0.2,85.4,0.2,85.7,0.9z"/>
<path class="st2" d="M66.5,1.2c3.1,1.9,2.4,7.1,2.4,11.9c0,1.2,0.3,3.6-0.3,4.4c-0.7,0.6-1.7,0.6-2.3-0.1l0,0
	c-0.2-0.8-0.2-1.7-0.1-2.6c0-2.7,0.1-5.6,0-8.1c-0.1-2-0.7-3.5-2.7-3.8c-0.2-0.1-0.4-0.1-0.6,0c-0.9,0.2-1.7,0.6-2.3,1.3
	c-0.6,0.5-1.1,1-1.4,1.7c-0.1,1-0.1,1.9,0,2.9v5.8c0.1,0.9,0.1,1.8-0.1,2.7c-0.5,0.7-1.5,0.8-2.2,0.3l-0.1-0.1
	c-0.7-0.8-0.3-3.9-0.3-5.4c0-3.9,0.7-8.8-2.7-9.1c-0.2-0.1-0.4-0.1-0.6,0c-0.9,0.2-1.8,0.6-2.4,1.3c-0.5,0.5-1,1-1.4,1.6
	c-0.1,1-0.1,1.9,0,2.9v5.8c0.1,0.9,0.1,1.8-0.1,2.7c-0.6,0.7-1.6,0.8-2.3,0.3l0,0c-0.5-0.5-0.3-2.8-0.3-4.1V4.7
	c0-1.8-0.5-4.5,1.1-4.7c0.6-0.1,1.3,0.3,1.4,0.9c0,0.1,0,0.3,0,0.4v1.9c0.2,0.1,0.5-0.4,0.8-0.6c1.2-1.4,3.1-2.2,5-2
	c1.7,0.1,3.2,1.3,3.8,2.9c0.9-0.9,1.9-1.7,2.9-2.4C63.1,0.4,65,0.4,66.5,1.2z"/>
<path class="st1" d="M41.3,61.8c4.4-2.5,9.1,1.4,8.5,6c-0.2,1.4-0.7,2.7-1.5,3.8c-2.7,4.2-7.1,7.2-12.4,8.8c-3,0.9-6.2,1.4-9.4,1.3
	c-3,0-6.1-0.6-8.9-1.7C8,76.1,1.6,66.9,0.2,54.8C-0.4,48.7,0.7,42.5,3.4,37c3.8-8,11.1-14,21.2-16c1.6-0.3,3.2-0.5,4.9-0.5
	c3.2-0.1,8.1-0.1,10.5,1.1c2.9,1.3,4.8,4.2,4.9,7.4c0,2.2-1,4.4-2.7,5.8c-1.4,1.3-3.3,2-5.2,1.9c-1,0-2-0.3-2.9-0.7
	c-0.8-0.4-1.6-0.8-2.4-1.2C26,33.2,20,34.9,15.9,39.2c-2.6,2.6-4.2,6-4.7,9.7c-0.6,4,0.2,8.1,2.3,11.7c2.6,4.9,7.7,8.1,13.3,8.2
	c3.6,0.2,6.1-1,8.5-2.1c0.8-0.3,1.6-0.8,2.2-1.3C38.9,64.1,39.8,62.7,41.3,61.8z"/>
<g class="st3">
	<path class="st2" d="M146.9,99c-0.1-0.1-0.2-0.4-0.2-0.7V87.9c0-0.3,0.1-0.5,0.2-0.7c0.1-0.2,0.4-0.2,0.7-0.2h4.4
		c1.7,0,2.9,0.4,3.7,1.1s1.2,1.8,1.2,3.2c0,1.4-0.4,2.4-1.2,3.1s-2,1.1-3.7,1.1h-1.7v2.9c0,0.3-0.1,0.5-0.2,0.7
		c-0.1,0.1-0.4,0.2-0.7,0.2h-1.7C147.3,99.2,147,99.1,146.9,99z M151.8,92.8c0.5,0,0.9-0.1,1.1-0.4c0.3-0.3,0.4-0.7,0.4-1.2
		c0-0.5-0.1-0.9-0.4-1.2s-0.7-0.4-1.1-0.4h-1.4v3.2H151.8z"/>
</g>
<g class="st3">
	<path class="st2" d="M161.6,99c-0.1-0.1-0.2-0.4-0.2-0.7V87.9c0-0.3,0.1-0.5,0.2-0.7c0.1-0.2,0.4-0.2,0.7-0.2h1.7
		c0.3,0,0.6,0.1,0.7,0.2c0.1,0.1,0.2,0.4,0.2,0.7v8.7h4.6c0.3,0,0.6,0.1,0.7,0.2c0.1,0.1,0.2,0.4,0.2,0.7v0.8c0,0.3-0.1,0.5-0.2,0.7
		s-0.3,0.2-0.7,0.2h-7.3C162,99.2,161.8,99.1,161.6,99z"/>
</g>
<g class="st3">
	<path class="st2" d="M174.4,98.9c0-0.1,0-0.2,0.1-0.4l4.6-10.9c0.1-0.2,0.2-0.4,0.3-0.5c0.1-0.1,0.3-0.1,0.5-0.1h1.6
		c0.2,0,0.4,0,0.5,0.1c0.1,0.1,0.2,0.2,0.3,0.5l4.6,10.9c0.1,0.1,0.1,0.3,0.1,0.3c0,0.1,0,0.2-0.1,0.3c-0.1,0.1-0.2,0.1-0.3,0.1
		h-2.8c-0.2,0-0.3,0-0.4-0.1c-0.1-0.1-0.2-0.2-0.2-0.3l-0.6-1.7h-3.8l-0.6,1.7c-0.1,0.2-0.1,0.3-0.2,0.3c-0.1,0.1-0.2,0.1-0.4,0.1
		h-2.8C174.5,99.2,174.4,99.1,174.4,98.9z M181.8,94.6l-1.1-3.1l-1.1,3.1H181.8z"/>
</g>
<g class="st3">
	<path class="st2" d="M192.6,99c-0.1-0.1-0.2-0.4-0.2-0.7v-8.7h-2.8c-0.3,0-0.6-0.1-0.7-0.2c-0.1-0.1-0.2-0.4-0.2-0.7v-0.8
		c0-0.3,0.1-0.5,0.2-0.7c0.1-0.1,0.3-0.2,0.7-0.2h9.2c0.3,0,0.6,0.1,0.7,0.2c0.1,0.1,0.2,0.4,0.2,0.7v0.8c0,0.3-0.1,0.5-0.2,0.7
		c-0.1,0.1-0.4,0.2-0.7,0.2h-2.8v8.7c0,0.3-0.1,0.5-0.2,0.7c-0.1,0.1-0.4,0.2-0.7,0.2h-1.7C193,99.2,192.8,99.1,192.6,99z"/>
</g>
<g class="st3">
	<path class="st2" d="M204.4,99c-0.1-0.1-0.2-0.4-0.2-0.7V87.9c0-0.3,0.1-0.5,0.2-0.7c0.1-0.2,0.4-0.2,0.7-0.2h7.5
		c0.3,0,0.6,0.1,0.7,0.2c0.1,0.1,0.2,0.4,0.2,0.7v0.8c0,0.3-0.1,0.6-0.2,0.7c-0.1,0.1-0.3,0.2-0.7,0.2h-4.8v2.2h3.2
		c0.3,0,0.6,0.1,0.7,0.2c0.1,0.1,0.2,0.4,0.2,0.7v0.8c0,0.3-0.1,0.6-0.2,0.7s-0.4,0.2-0.7,0.2h-3.2v3.9c0,0.3-0.1,0.5-0.2,0.7
		c-0.1,0.1-0.4,0.2-0.7,0.2h-1.7C204.8,99.2,204.5,99.1,204.4,99z"/>
</g>
<g class="st3">
	<path class="st2" d="M218.3,97.8c-1.1-1.1-1.6-2.7-1.6-4.7s0.5-3.6,1.6-4.7c1.1-1.1,2.7-1.7,4.8-1.7s3.7,0.6,4.8,1.7
		c1.1,1.1,1.6,2.7,1.6,4.7s-0.5,3.6-1.6,4.7c-1.1,1.1-2.7,1.7-4.8,1.7S219.4,98.9,218.3,97.8z M225.2,96c0.5-0.6,0.7-1.6,0.7-2.9
		c0-1.3-0.2-2.2-0.7-2.8c-0.4-0.6-1.1-1-2.1-1s-1.6,0.3-2.1,1s-0.7,1.6-0.7,2.8c0,1.3,0.2,2.2,0.7,2.9s1.1,1,2.1,1
		S224.7,96.6,225.2,96z"/>
	<path class="st2" d="M233.9,99c-0.1-0.1-0.2-0.4-0.2-0.7V87.9c0-0.3,0.1-0.5,0.2-0.7c0.1-0.2,0.4-0.2,0.7-0.2h4.4
		c1.7,0,2.9,0.3,3.7,1c0.8,0.7,1.2,1.7,1.2,3.1c0,1.7-0.7,2.9-2,3.5l1.8,3.9c0,0.1,0.1,0.2,0.1,0.3c0,0.1,0,0.2-0.1,0.3
		c-0.1,0.1-0.2,0.1-0.3,0.1h-2.5c-0.2,0-0.3,0-0.4-0.1c-0.1,0-0.2-0.1-0.2-0.3l-1.5-3.7h-1.4v3.1c0,0.3-0.1,0.5-0.2,0.7
		c-0.1,0.1-0.4,0.2-0.7,0.2h-1.7C234.2,99.2,234,99.1,233.9,99z M238.6,92.6c1.1,0,1.6-0.5,1.6-1.5c0-1-0.5-1.5-1.5-1.5h-1.4v3
		H238.6z"/>
	<path class="st2" d="M248.3,99c-0.1-0.1-0.2-0.4-0.2-0.7V87.9c0-0.3,0.1-0.5,0.2-0.7c0.1-0.1,0.4-0.2,0.7-0.2h1.7
		c0.2,0,0.4,0,0.6,0.1c0.1,0.1,0.2,0.2,0.3,0.4l2.6,6.3l2.6-6.3c0.1-0.2,0.2-0.3,0.3-0.4c0.1-0.1,0.3-0.1,0.6-0.1h1.7
		c0.3,0,0.6,0.1,0.7,0.2c0.1,0.1,0.2,0.4,0.2,0.7v10.4c0,0.3-0.1,0.5-0.2,0.7c-0.1,0.1-0.4,0.2-0.7,0.2H258c-0.3,0-0.6-0.1-0.7-0.2
		c-0.1-0.1-0.2-0.4-0.2-0.7v-5.8l-1.7,3.9c-0.1,0.3-0.3,0.5-0.4,0.6c-0.1,0.1-0.4,0.2-0.7,0.2c-0.3,0-0.6-0.1-0.7-0.2
		c-0.1-0.1-0.3-0.3-0.4-0.6l-1.7-3.9v5.8c0,0.3-0.1,0.5-0.2,0.7c-0.1,0.1-0.4,0.2-0.7,0.2H249C248.7,99.2,248.4,99.1,248.3,99z"/>
</g>
</svg>
