<svg id="914144c8-7598-407c-89eb-6c9ee2940e64" data-name="Layer 1" xmlns="http://www.w3.org/2000/svg" width="240" height="240" viewBox="0 0 240 240"><title>MCV_logo_square</title><path d="M208.86,156.23a6.37,6.37,0,0,1-.05,4.92c-1.25,2.75-4.39,4.28-7.24,5.32a27,27,0,0,1-11,1.45c-7.54-.49-13.17-3.88-15.87-9.2-3.1-6.15-1.76-15.16,1-20.47s7.15-9.87,14.93-10.28c6.85-.37,12.48,1.48,15.25,5.16a9.2,9.2,0,0,1,.78,9.15c-1.4,2.63-3.86,4.12-6.31,5.43-5.32,2.85-10.72,4.94-16.07,7.45,2.14,2.72,7.48,3.76,12.3,2.69a13.17,13.17,0,0,0,4.11-1.7c1.61-.94,4.69-2.41,7-1.09A4,4,0,0,1,208.86,156.23Zm-9.47-16.69a11.66,11.66,0,0,0-8-2.38c-5.84.54-9.66,4.22-10.13,10.08,5.95-2.47,12.15-5.16,18.14-7.71Z" style="fill:#faa21d"/><path d="M166.47,117.49c.44,1.62.15,4.22.15,6.2v37.84c0,2,.29,4.39-.1,6.21a4.72,4.72,0,0,1-4.76,4,4.8,4.8,0,0,1-4.86-3.87,14.21,14.21,0,0,1-.11-3.1v-41.1c0-1.88-.31-4.47.15-6.15a5,5,0,0,1,9.52,0Z" style="fill:#faa21d"/><path d="M149.2,117.49c.44,1.62.15,4.22.15,6.2v37.84c0,2,.28,4.39-.1,6.21a4.72,4.72,0,0,1-4.76,4,4.82,4.82,0,0,1-4.87-3.87,14.81,14.81,0,0,1-.1-3.1v-41.1c0-1.88-.31-4.47.15-6.15a5,5,0,0,1,9.52,0Z" style="fill:#faa21d"/><path d="M129.81,164.25a18.44,18.44,0,0,1-.11,3.67,5,5,0,0,1-4.34,3.78,4.94,4.94,0,0,1-5.17-3.42,14.05,14.05,0,0,1-.2-3.67V141.34a14.62,14.62,0,0,1,.2-3.66,4.71,4.71,0,0,1,4.19-3.51,4.94,4.94,0,0,1,5.27,3.57,17,17,0,0,1,.15,3.67Z" style="fill:#faa21d"/><path d="M129.4,123.88a4.8,4.8,0,1,1-5.28-4.29,4.7,4.7,0,0,1,5.25,4.07Q129.39,123.76,129.4,123.88Z" style="fill:#faa21d"/><path d="M112.65,122.32c1,1.86.08,5-.47,6.93-3.09,10.73-6.23,21.39-9.24,32.15-.56,2-1.12,4.35-1.76,6.52s-1.47,4.19-3.06,5.23a5.27,5.27,0,0,1-4.9.2c-1.59-.88-3-3.11-3.93-5s-1.94-4.13-2.79-6.1c-4.46-10.35-9.13-20.45-13.65-31-.74-1.76-2.4-4.59-1.45-7,.75-1.91,4.08-3.51,6.88-2.43s3.1,4.63,4.44,7.18c.34.65.8,1.17,1.09,1.76,1.28,2.63,2.28,5.32,3.46,8,2.33,5.2,4.69,10.71,7,15.81,3-8.07,5.14-17.24,7.65-26a44.11,44.11,0,0,1,1.4-4.23c.51-1.26,1.17-2.88,2.13-3.47C107.45,119.61,111.77,120.72,112.65,122.32Z" style="fill:#faa21d"/><path d="M138.07,79.06v.43A2.3,2.3,0,0,1,138.07,79.06Z" style="fill:#fff"/><path d="M83.52,43.29a8.4,8.4,0,0,1-.73,2.53c-1.67,4.73-3.51,9.66-5.17,14.38-.39,1.12-.71,3.34-2.12,3.46-.47,0-1.24-.28-1.34-.77-.15-.76.67-2.2.88-2.74.38-1,.65-1.67,1-2.58a20.53,20.53,0,0,1-1.7-4c-1-2.77-2-5.46-3-8.38-.39-1-.93-2.46.51-2.63s1.84,1.86,2.23,2.94c1.05,3,2.27,6.37,3.15,9.1a4.66,4.66,0,0,0,.61-1.5c.83-2.59,1.69-5.09,2.59-7.8.29-.88.69-2.45,1.44-2.7A1.32,1.32,0,0,1,83.52,43.29Z" style="fill:#636464"/><path d="M66.62,43.6c2.68,1.63,2.06,6.22,2.06,10.44,0,1.1.29,3.21-.25,3.88a1.46,1.46,0,0,1-2.06-.09h0a6.53,6.53,0,0,1-.1-2.27c0-2.34.11-4.9,0-7.08-.1-1.76-.61-3.09-2.33-3.31a.54.54,0,0,0-.52,0,3.67,3.67,0,0,0-2.07,1.13,5.15,5.15,0,0,0-1.24,1.5,13.46,13.46,0,0,0,0,2.53v5.07A7.27,7.27,0,0,1,60,57.76a1.39,1.39,0,0,1-1.95.26l-.12-.1c-.58-.71-.26-3.38-.26-4.76,0-3.4.65-7.68-2.32-8a.54.54,0,0,0-.52,0,3.58,3.58,0,0,0-2.13,1.19,5.27,5.27,0,0,0-1.19,1.45,13.46,13.46,0,0,0,0,2.53v5.07a7.13,7.13,0,0,1-.11,2.38,1.46,1.46,0,0,1-2,.22h0c-.41-.48-.26-2.42-.26-3.62V46.65c0-1.61-.4-4,.93-4.13a1,1,0,0,1,1.25,1.13v1.7c.22.05.43-.33.67-.56A5,5,0,0,1,56.28,43a3.81,3.81,0,0,1,3.31,2.58,20.54,20.54,0,0,1,2.59-2.08A5.19,5.19,0,0,1,66.62,43.6Z" style="fill:#636464"/><path d="M63.94,45.15h-.52A.54.54,0,0,1,63.94,45.15Z" style="fill:#faa21d"/><path d="M55.36,45.15h-.52A.54.54,0,0,1,55.36,45.15Z" style="fill:#faa21d"/><path d="M231.28,96.33a5.76,5.76,0,0,1-.32,5.33,9,9,0,0,1-3.41,3.21,24.05,24.05,0,0,1-10.19,3.1c-8.93.73-15.51-2.45-19.08-7.34a16.62,16.62,0,0,1-3-10.34c.17-8.4,3.16-14.68,8-18.61A16.59,16.59,0,0,1,213.09,68a22.26,22.26,0,0,1,11.73,2.22c3,1.62,5.38,4.29,5.22,8.69a8.87,8.87,0,0,1-3.46,6.46A30.47,30.47,0,0,1,220.32,89c-4.66,2.24-9,4.14-13.59,6.2,2.11,2.63,7.39,3.8,12.3,2.74a13.5,13.5,0,0,0,4.14-1.7c1.58-.94,4.49-2.44,6.88-1.19A3.61,3.61,0,0,1,231.28,96.33Zm-9.46-16.78a11.67,11.67,0,0,0-8-2.37c-5.84.54-9.66,4.22-10.13,10.08C209.63,84.81,215.82,82.18,221.82,79.54Z" style="fill:#018ada"/><path d="M193.54,81.86a5,5,0,0,1-3.26,5.79c-2.45.76-4.62-1.07-6-2.13s-3.22-2.54-4.76-3.72c-1.29-1-3.6-2.77-6-2.17a3.19,3.19,0,0,0-2.25,3.9l0,.08c.62,2,4.39,2.2,6.52,2.74s5.27,1.13,7,2.27C188,90.79,190.28,96,189,101.71c-1.07,4.94-3.84,8.19-8.32,9.62-5.49,1.76-10.58-.51-14.22-2.54a45.73,45.73,0,0,1-5.48-3.51c-1.59-1.2-3.51-2.73-4.08-4.86-.88-3.07,1.76-6.63,5.16-5.95,2.48.49,4.68,2.63,6.73,4,.95.67,2,1.5,3.15,2.22,1.39.88,3.51,1.85,5.43,1.09a3.24,3.24,0,0,0,1.7-4.08c-.59-1.43-2.51-1.66-4.19-1.91-4.89-.75-9.36-1.91-11.73-5.48a12.58,12.58,0,0,1-1.91-5,14.75,14.75,0,0,1,2.43-11,12.08,12.08,0,0,1,9.1-4.76c5-.37,8.9,1.88,12,3.83a49.67,49.67,0,0,1,4.65,3.25C191,77.94,193,79.68,193.54,81.86Z" style="fill:#018ada"/><path d="M159.68,75.15a6,6,0,0,1-1.91,5.95A5.66,5.66,0,0,1,154,82.24c-3.51-.25-5.79-4-4.55-8a4,4,0,0,0-4.14-1.91,8,8,0,0,0-4.75,2.49,6.87,6.87,0,0,0-2.38,4.8v.21c0,.08-.05,0-.05-.05v-.68a2.3,2.3,0,0,0,0,.43c.15,5.88.4,11.42.61,17.31a50.78,50.78,0,0,1,.2,5.94,4.93,4.93,0,0,1-8.63,2.75c-1-1.12-1.17-2.52-1.24-4.39-.34-9-.62-17.9-1-26.88a46.46,46.46,0,0,1-.16-5.37,4.94,4.94,0,0,1,9.77-.32c.14.08.38-.22.57-.41a19.07,19.07,0,0,1,1.91-1.65c1.76-1.33,3.51-2.92,6.72-2.79a12.71,12.71,0,0,1,4.44,1.19,11.82,11.82,0,0,1,6.62,6.05,14.87,14.87,0,0,1,1,2A15.88,15.88,0,0,1,159.68,75.15Z" style="fill:#018ada"/><path d="M123.33,68.13a16,16,0,0,1,.47,5.79c-.27,5.93.44,12.51-.25,18.14a12.1,12.1,0,0,1-4.14,8.27,15.9,15.9,0,0,1-8.48,3.93A16.32,16.32,0,0,1,101,102a12.86,12.86,0,0,1-6.1-6.31c-1.25-3.07-.52-7.76-.52-11.58,0-1.94.16-4,.16-6.05a24.23,24.23,0,0,0-.37-5.84c-.25-1-1-1.76-1.34-2.78a5.55,5.55,0,0,1,.93-4.76,5.37,5.37,0,0,1,3.86-2.29,5.06,5.06,0,0,1,5.63,4.24,17.67,17.67,0,0,1,.06,3V88.06a18.71,18.71,0,0,0,0,3,5.6,5.6,0,0,0,6.15,4.65c2.84-.22,4.78-2.32,5.16-5.59a31.84,31.84,0,0,0,.11-5.27c-.2-4.31-.05-8.84-.05-13.39a11.82,11.82,0,0,1,.11-2.9,5.22,5.22,0,0,1,1.4-2.37C118.45,64.25,122.45,65.7,123.33,68.13Z" style="fill:#018ada"/><path d="M90.25,87.08a19.22,19.22,0,0,1-18.14,20.11,18.77,18.77,0,0,1-14-5,19.21,19.21,0,0,1-1.09-27,19,19,0,0,1,8.89-5.48A20.94,20.94,0,0,1,70.09,69a18.89,18.89,0,0,1,14.05,5.07A19.26,19.26,0,0,1,90.25,87.08ZM78.72,95.19a10,10,0,0,0,2.63-7.6A10.27,10.27,0,0,0,78,80.72a10.16,10.16,0,0,0-7.61-2.63,10.64,10.64,0,0,0-7,3.36,10,10,0,0,0-2.54,7.61,9.82,9.82,0,0,0,3.36,6.87,10.34,10.34,0,0,0,14.47-.72Z" style="fill:#018ada"/><path d="M44.49,96.8c3.87-2.17,8,1.26,7.45,5.27a7.11,7.11,0,0,1-1.34,3.31,19.76,19.76,0,0,1-10.91,7.75,26.55,26.55,0,0,1-8.22,1.13,20.9,20.9,0,0,1-7.81-1.55c-8.44-3.43-14.05-11.5-15.31-22.08A29.18,29.18,0,0,1,11.15,75c3.34-7,9.74-12.3,18.62-14.05a32.4,32.4,0,0,1,4.29-.47c2.84-.13,7.12-.1,9.2.93a7.45,7.45,0,0,1,4.29,6.46A6.82,6.82,0,0,1,45.22,73a6.45,6.45,0,0,1-4.6,1.7,6.15,6.15,0,0,1-2.54-.62A16.74,16.74,0,0,0,36,73a13.87,13.87,0,0,0-5.53-.41,14.05,14.05,0,0,0-8.33,4.23A14.75,14.75,0,0,0,18,85.33a15.58,15.58,0,0,0,2,10.23,13.6,13.6,0,0,0,11.68,7.18c3.19.18,5.34-.88,7.5-1.81a8,8,0,0,0,2-1.19C42.36,98.76,43.12,97.57,44.49,96.8Z" style="fill:#018ada"/><path d="M51.27,43.65a6.15,6.15,0,0,1,0,1.7Z" style="fill:#faa21d"/><path d="M127.64,27.42v.67a.38.38,0,0,1-.11.31.52.52,0,0,1-.34.09h-.83a.51.51,0,0,1-.4-.13.62.62,0,0,1-.12-.42V20.36a.63.63,0,0,1,.15-.47.66.66,0,0,1,.48-.15h.87a.66.66,0,0,1,.48.15.64.64,0,0,1,.15.47v5.1a1.34,1.34,0,0,0,.31.83,2.25,2.25,0,0,0,.83.65,2.62,2.62,0,0,0,1.14.25,1.89,1.89,0,0,0,1.33-.38,1.67,1.67,0,0,0,.4-1.25v-5.2a.64.64,0,0,1,.15-.47.66.66,0,0,1,.48-.15h.88a.63.63,0,0,1,.47.15.66.66,0,0,1,.14.47v5.23a3,3,0,0,1-.89,2.34,3.37,3.37,0,0,1-2.36.81A4,4,0,0,1,127.64,27.42Z" style="fill:#727272"/><path d="M139.21,27.94V22.69a1.89,1.89,0,0,0-.33-1.24,1.48,1.48,0,0,0-1.16-.37,4,4,0,0,0-.87.1,3.3,3.3,0,0,0-.75.25.44.44,0,0,1-.22.07c-.08,0-.14-.06-.2-.18l-.4-.9a1.29,1.29,0,0,1,0-.15c0-.08.08-.16.23-.25a5.35,5.35,0,0,1,2.5-.52,3.6,3.6,0,0,1,2.52.77,3.09,3.09,0,0,1,.82,2.37v5.31q0,.55-.58.55h-1A.49.49,0,0,1,139.21,27.94Z" style="fill:#727272"/><path d="M144.15,28A2.3,2.3,0,0,1,143,25.93a2,2,0,0,1,1.37-2.1,2.22,2.22,0,0,1-1-.78,2.18,2.18,0,0,1-.32-1.22,2.24,2.24,0,0,1,.32-1.17,2.27,2.27,0,0,1,.91-.85,2.87,2.87,0,0,1,1.37-.32,3.84,3.84,0,0,1,1.73.37c.14.08.22.17.22.27l0,.15-.23.67q-.07.18-.22.18a.23.23,0,0,1-.13,0,1.69,1.69,0,0,0-.85-.2,1,1,0,0,0-.77.3,1.14,1.14,0,0,0-.28.8,1.06,1.06,0,0,0,.38.89,1.85,1.85,0,0,0,1.14.29H147a.42.42,0,0,1,.28.07.36.36,0,0,1,.08.27v.58a.34.34,0,0,1-.38.38h-.27a1.9,1.9,0,0,0-1.21.31,1.26,1.26,0,0,0-.37,1q0,1.35,2.1,1.35a2.17,2.17,0,0,0,1.66-.55,2.49,2.49,0,0,0,.51-1.73V20.36a.66.66,0,0,1,.14-.47.63.63,0,0,1,.47-.15h.87a.66.66,0,0,1,.48.15.64.64,0,0,1,.15.47v4.53q0,3.85-4.26,3.85A5.92,5.92,0,0,1,144.15,28Z" style="fill:#727272"/><path d="M153.6,28.34a.64.64,0,0,1-.14-.45v-5a3.08,3.08,0,0,1,1.07-2.47,5.74,5.74,0,0,1,6.2,0,3.08,3.08,0,0,1,1.07,2.47v5a.61.61,0,0,1-.15.45.69.69,0,0,1-.5.15h-.85a.66.66,0,0,1-.48-.15.61.61,0,0,1-.15-.45v-5a1.62,1.62,0,0,0-.52-1.31,2.27,2.27,0,0,0-1.52-.44q-2,0-2,1.75v1.87a1.8,1.8,0,0,1,1.65-.87h.53a.28.28,0,0,1,.33.33v.92a.42.42,0,0,1-.08.3.37.37,0,0,1-.27.08h-.57A1.43,1.43,0,0,0,156,26a2.11,2.11,0,0,0-.41,1.35v.55a.63.63,0,0,1-.14.45.66.66,0,0,1-.49.15h-.88A.63.63,0,0,1,153.6,28.34Z" style="fill:#727272"/><path d="M164.44,27.92a2.92,2.92,0,0,1-1-2.42V24a.47.47,0,0,1,.55-.53h2.3a.46.46,0,0,1,.35.11.52.52,0,0,1,.1.36v.52a.52.52,0,0,1-.1.36.49.49,0,0,1-.37.11h-.92v.75q0,1.5,2,1.5a2.64,2.64,0,0,0,1.37-.31,1.7,1.7,0,0,0,.72-1,6.07,6.07,0,0,0,.22-1.82,3.42,3.42,0,0,0-.62-2.29,2.72,2.72,0,0,0-2.12-.71,5.73,5.73,0,0,0-2.5.52.65.65,0,0,1-.23.08c-.09,0-.17-.07-.25-.22l-.42-.77a.46.46,0,0,1-.07-.23c0-.09.06-.17.18-.25a7.74,7.74,0,0,1,3.61-.72,4.68,4.68,0,0,1,3.41,1.11,4.7,4.7,0,0,1,1.12,3.47,4.85,4.85,0,0,1-1.12,3.52,4.35,4.35,0,0,1-3.24,1.14A4.67,4.67,0,0,1,164.44,27.92Z" style="fill:#727272"/><path d="M175,28.57a6.36,6.36,0,0,1-1.6-.51c-.2-.1-.3-.2-.3-.3a.39.39,0,0,1,0-.17l.43-.85q.1-.17.2-.17l.23.07a6.83,6.83,0,0,0,2.67.6A3.26,3.26,0,0,0,178,27a.78.78,0,0,0,.47-.76.81.81,0,0,0-.17-.53,1.32,1.32,0,0,0-.49-.34q-.33-.14-1.08-.41-.27-.12-.68-.25a6.54,6.54,0,0,1-2-1.11,2,2,0,0,1-.69-1.61,2.08,2.08,0,0,1,1-1.87,5.14,5.14,0,0,1,2.77-.64,7.7,7.7,0,0,1,1.65.16,6,6,0,0,1,1.38.49q.28.15.28.32a.42.42,0,0,1-.07.2l-.38.72c-.06.13-.13.2-.22.2a.43.43,0,0,1-.22-.07,4.28,4.28,0,0,0-1.07-.37,6.17,6.17,0,0,0-1.29-.13,3.07,3.07,0,0,0-1.34.23.8.8,0,0,0-.44.77.81.81,0,0,0,.25.61,2.16,2.16,0,0,0,.66.42q.41.17,1.26.46l.42.13a8.18,8.18,0,0,1,1.59.69,2.08,2.08,0,0,1,.79.79,2.49,2.49,0,0,1,.23,1.15,2.09,2.09,0,0,1-1,1.81,4.81,4.81,0,0,1-2.75.67A10.13,10.13,0,0,1,175,28.57Z" style="fill:#727272"/><path d="M176,17.95a.52.52,0,0,1-.1-.37V16.41a1.15,1.15,0,0,1,.25-.83,1.23,1.23,0,0,1,.88-.25h3.71a.58.58,0,0,1,.42.11.62.62,0,0,1,.1.41v.52a.53.53,0,0,1-.12.4.68.68,0,0,1-.46.12q-.95,0-3-.22v.92a.52.52,0,0,1-.1.37.49.49,0,0,1-.35.1h-.87A.49.49,0,0,1,176,17.95Z" style="fill:#727272"/><path d="M182.69,28.07a2.34,2.34,0,0,1-.8-1.89,2.33,2.33,0,0,1,1-2.13,5.14,5.14,0,0,1,2.77-.63h2.67v-.52a1.73,1.73,0,0,0-.52-1.39,2.84,2.84,0,0,0-1.82-.44,5.86,5.86,0,0,0-1.32.15,5.94,5.94,0,0,0-1.18.4l-.23.07c-.09,0-.17-.07-.25-.2l-.42-.78a.47.47,0,0,1-.07-.23.26.26,0,0,1,.18-.23,6.41,6.41,0,0,1,1.59-.53,9.3,9.3,0,0,1,1.94-.2,6.88,6.88,0,0,1,2,.25,7.68,7.68,0,0,1,1-.58,3,3,0,0,1,.8-.27l.15,0a.41.41,0,0,1,.22,0,.29.29,0,0,1,.11.17l.32.85a1,1,0,0,1,0,.17c0,.11-.07.2-.22.27l-.88.4a3.73,3.73,0,0,1,.67,2.33v4.78a.64.64,0,0,1-.14.45.66.66,0,0,1-.49.15h-.87a.66.66,0,0,1-.48-.15.61.61,0,0,1-.15-.45v-3h-2.75a2.31,2.31,0,0,0-1.29.27,1.09,1.09,0,0,0-.39,1,1,1,0,0,0,.32.87,1.62,1.62,0,0,0,1,.25,2.68,2.68,0,0,0,1-.18l.13,0c.09,0,.15.07.18.22l.23.83a.36.36,0,0,1,0,.12q0,.15-.2.23a4.35,4.35,0,0,1-1.83.3A3.09,3.09,0,0,1,182.69,28.07Z" style="fill:#727272"/><path d="M193.33,28.57A5.88,5.88,0,0,1,191.9,28c-.17-.09-.25-.19-.25-.3a.42.42,0,0,1,.07-.2l.43-.77q.12-.2.22-.2a.65.65,0,0,1,.23.08,5.5,5.5,0,0,0,2.33.5q2.9,0,2.9-3a3.17,3.17,0,0,0-.72-2.34A2.94,2.94,0,0,0,195,21.1a4.87,4.87,0,0,0-2.27.5.64.64,0,0,1-.25.08c-.08,0-.15-.07-.22-.2l-.42-.77a.44.44,0,0,1-.07-.22c0-.11.08-.21.23-.28a5.53,5.53,0,0,1,1.42-.54,7.58,7.58,0,0,1,1.72-.17,5.1,5.1,0,0,1,3.61,1.16A4.55,4.55,0,0,1,200,24.14a4.43,4.43,0,0,1-1.27,3.44,5.14,5.14,0,0,1-3.6,1.16A8,8,0,0,1,193.33,28.57Z" style="fill:#727272"/><path d="M192.32,17.91a.65.65,0,0,1-.12-.45v-.38a.69.69,0,0,1,.13-.46.6.6,0,0,1,.46-.14h6.08a.62.62,0,0,1,.47.14.65.65,0,0,1,.13.46v.38a.62.62,0,0,1-.13.45.65.65,0,0,1-.47.13h-6.08A.62.62,0,0,1,192.32,17.91Z" style="fill:#727272"/><path d="M201.91,28.07a2.34,2.34,0,0,1-.8-1.89,2.33,2.33,0,0,1,1-2.13,5.14,5.14,0,0,1,2.77-.63h2.67v-.52A1.73,1.73,0,0,0,207,21.5a2.84,2.84,0,0,0-1.82-.44,6.05,6.05,0,0,0-2.5.55l-.23.07c-.08,0-.16-.07-.25-.2l-.42-.78a.46.46,0,0,1-.07-.23.26.26,0,0,1,.18-.23,6.41,6.41,0,0,1,1.59-.53,9.3,9.3,0,0,1,1.94-.2,4.77,4.77,0,0,1,3.2.89,3.43,3.43,0,0,1,1,2.72v4.78a.64.64,0,0,1-.14.45.66.66,0,0,1-.49.15h-.87a.66.66,0,0,1-.48-.15.61.61,0,0,1-.15-.45v-3h-2.75a2.31,2.31,0,0,0-1.29.27,1.09,1.09,0,0,0-.39,1,1,1,0,0,0,.32.87,1.62,1.62,0,0,0,1,.25,2.68,2.68,0,0,0,1-.18l.13,0c.09,0,.15.07.18.22l.23.83a.36.36,0,0,1,0,.12c0,.1-.07.18-.2.23a4.35,4.35,0,0,1-1.83.3A3.09,3.09,0,0,1,201.91,28.07Z" style="fill:#727272"/><path d="M212.12,28.07a2.34,2.34,0,0,1-.8-1.89,2.33,2.33,0,0,1,1-2.13,5.14,5.14,0,0,1,2.77-.63h2.67v-.52a1.73,1.73,0,0,0-.52-1.39,2.84,2.84,0,0,0-1.82-.44,6.05,6.05,0,0,0-2.5.55l-.23.07c-.08,0-.16-.07-.25-.2L212,20.7a.46.46,0,0,1-.07-.23.26.26,0,0,1,.18-.23,6.41,6.41,0,0,1,1.59-.53,9.3,9.3,0,0,1,1.94-.2,4.77,4.77,0,0,1,3.2.89,3.43,3.43,0,0,1,1,2.72v4.78a.64.64,0,0,1-.14.45.66.66,0,0,1-.49.15h-.87a.66.66,0,0,1-.48-.15.61.61,0,0,1-.15-.45v-3H215a2.31,2.31,0,0,0-1.29.27,1.09,1.09,0,0,0-.39,1,1,1,0,0,0,.32.87,1.62,1.62,0,0,0,1,.25,2.68,2.68,0,0,0,1-.18l.13,0c.09,0,.15.07.18.22l.23.83a.36.36,0,0,1,0,.12c0,.1-.07.18-.2.23a4.35,4.35,0,0,1-1.83.3A3.09,3.09,0,0,1,212.12,28.07Z" style="fill:#727272"/><path d="M215.6,17.95a.52.52,0,0,1-.1-.37V16.41a1.15,1.15,0,0,1,.25-.83,1.23,1.23,0,0,1,.88-.25h3.71a.58.58,0,0,1,.42.11.62.62,0,0,1,.1.41v.52a.53.53,0,0,1-.12.4.68.68,0,0,1-.46.12q-.95,0-3-.22v.92a.52.52,0,0,1-.1.37.49.49,0,0,1-.35.1h-.87A.49.49,0,0,1,215.6,17.95Z" style="fill:#727272"/><path d="M161.6,199.18a1,1,0,0,1-.22-.7V182.75a1,1,0,0,1,.22-.73,1,1,0,0,1,.74-.23h1.37a1,1,0,0,1,.75.23,1,1,0,0,1,.23.73V196.9h7.93a1,1,0,0,1,.73.22,1,1,0,0,1,.21.71v.7a.93.93,0,0,1-.21.67,1,1,0,0,1-.73.21H162.34A1,1,0,0,1,161.6,199.18Z" style="fill:#727272"/><path d="M175.8,199.18a1,1,0,0,1-.22-.7V182.75a.83.83,0,0,1,1-1H178a1.56,1.56,0,0,1,.64.1.75.75,0,0,1,.35.42l5.24,12.05,5.24-12.05a.74.74,0,0,1,.35-.42,1.55,1.55,0,0,1,.63-.1h1.4a.83.83,0,0,1,1,1v15.74a.82.82,0,0,1-1,.93H190.7a1,1,0,0,1-.75-.23,1,1,0,0,1-.23-.7V187.31l-4.43,9.88a2,2,0,0,1-.41.6,1,1,0,0,1-.67.18,1.07,1.07,0,0,1-.69-.18,1.59,1.59,0,0,1-.4-.6l-4.43-9.88v11.17a1,1,0,0,1-.22.7,1,1,0,0,1-.77.23h-1.14A1,1,0,0,1,175.8,199.18Z" style="fill:#727272"/><path d="M198.54,199.4a8.25,8.25,0,0,1-2.84-1.13q-.34-.23-.34-.42a.48.48,0,0,1,.1-.31l.86-1.35c.1-.16.2-.23.29-.23a.7.7,0,0,1,.34.13,9,9,0,0,0,2.23.92,9.65,9.65,0,0,0,2.57.35,4.91,4.91,0,0,0,2.66-.58,2.44,2.44,0,0,0,.56-3.12,2.75,2.75,0,0,0-1-.8q-.65-.34-2.1-.91l-.6-.23a23.67,23.67,0,0,1-2.79-1.3,5.62,5.62,0,0,1-1.83-1.63,4.11,4.11,0,0,1-.73-2.46,4.21,4.21,0,0,1,1.8-3.64,8,8,0,0,1,4.73-1.28,12.55,12.55,0,0,1,3.1.34,6.59,6.59,0,0,1,2.27,1q.31.23.31.44a.45.45,0,0,1-.1.29l-.83,1.35c-.1.16-.19.23-.26.23a.76.76,0,0,1-.34-.16,7.49,7.49,0,0,0-4.12-1.06,4.21,4.21,0,0,0-2.46.6,2.17,2.17,0,0,0-.83,1.89,2.13,2.13,0,0,0,.35,1.28,2.75,2.75,0,0,0,1,.82q.67.34,2.18.91l.65.26a21.24,21.24,0,0,1,3,1.39,4.75,4.75,0,0,1,1.65,1.58,4.56,4.56,0,0,1,.58,2.42,4.19,4.19,0,0,1-1.67,3.51,7.67,7.67,0,0,1-4.76,1.28A16.35,16.35,0,0,1,198.54,199.4Z" style="fill:#727272"/></svg>